<?xml version="1.0" encoding="UTF-8" standalone="no"?>
<!-- Created with Inkscape (http://www.inkscape.org/) -->

<svg
   version="1.1"
   viewBox="0 0 2283.705 533.33304"
   xmlns="http://www.w3.org/2000/svg"
   xmlns:svg="http://www.w3.org/2000/svg">
   <defs
      id="defs6">
      <clipPath
         clipPathUnits="userSpaceOnUse"
         id="clipPath20">
         <path
            d="m 428.275,504.12 -88.65,88.66 c -15.329,-4.797 -29.86,-11.36 -43.371,-19.469 v 0 L 396.87,472.705 h 75.835 V 396.859 L 573.302,296.264 c 8.118,13.511 14.681,28.042 19.478,43.36 v 0 l -88.659,88.65 H 600 c -2.171,15.44 -6.078,30.315 -11.522,44.431 v 0 H 504.13 l 53.53,53.529 c -9.291,11.592 -19.833,22.135 -31.426,31.425 v 0 L 472.705,504.12 v 84.358 c -14.116,5.443 -28.991,9.351 -44.43,11.522 v 0 z"
            id="path18" />
      </clipPath>
      <radialGradient
         fx="0"
         fy="0"
         cx="0"
         cy="0"
         r="1"
         gradientUnits="userSpaceOnUse"
         gradientTransform="matrix(-131.30038,136.02264,136.02264,131.30038,448.12717,448.1319)"
         spreadMethod="pad"
         id="radialGradient30">
         <stop
            style="stop-opacity:1;stop-color:#eafbfb"
            offset="0"
            id="stop26" />
         <stop
            style="stop-opacity:1;stop-color:#00b0ae"
            offset="1"
            id="stop28" />
      </radialGradient>
      <clipPath
         clipPathUnits="userSpaceOnUse"
         id="clipPath40">
         <path
            d="M 0,800 H 2112.78 V 0 H 0 Z"
            id="path38" />
      </clipPath>
   </defs>
   <g
      id="g10"
      transform="matrix(1.3333333,0,0,-1.3333333,-266.66746,799.99998)">
      <g
         id="g14">
         <g
            id="g16"
            clip-path="url(#clipPath20)">
            <g
               id="g22">
               <g
                  id="g24">
                  <path
                     d="m 428.275,504.12 -88.65,88.66 c -15.329,-4.797 -29.86,-11.36 -43.371,-19.469 v 0 L 396.87,472.705 h 75.835 V 396.859 L 573.302,296.264 c 8.118,13.511 14.681,28.042 19.478,43.36 v 0 l -88.659,88.65 H 600 c -2.171,15.44 -6.078,30.315 -11.522,44.431 v 0 H 504.13 l 53.53,53.529 c -9.291,11.592 -19.833,22.135 -31.426,31.425 v 0 L 472.705,504.12 v 84.358 c -14.116,5.443 -28.991,9.351 -44.43,11.522 v 0 z"
                     style="fill:url(#radialGradient30);stroke:none"
                     id="path32" />
               </g>
            </g>
         </g>
      </g>
      <g
         id="g34">
         <g
            id="g36"
            clip-path="url(#clipPath40)">
            <g
               id="g42"
               transform="translate(472.7056,472.7052)">
               <path
                  d="m 0,0 v -261.184 c -14.117,-5.442 -28.991,-9.35 -44.431,-11.521 V -75.846 L -198.94,-230.354 c -11.582,9.28 -22.124,19.822 -31.414,31.414 l 154.508,154.509 h -196.859 c 2.171,15.44 6.079,30.314 11.521,44.431 z"
                  style="fill:#003645;fill-opacity:1;fill-rule:nonzero;stroke:none"
                  id="path44" />
            </g>
            <g
               id="g46"
               transform="translate(797.7554,350.1898)"
               style="fill:#ffffff;fill-opacity:1">
               <path
                  d="m 0,0 c -40.71,0 -67.224,32.671 -67.224,73.915 0,41.243 26.514,73.381 67.224,73.381 40.71,0 67.224,-32.138 67.224,-73.381 C 67.224,32.671 40.71,0 0,0 m 0,173.81 c -55.708,0 -97.755,-43.119 -97.755,-99.895 0,-56.776 42.047,-100.429 97.755,-100.429 55.708,0 97.755,43.653 97.755,100.429 0,56.776 -42.047,99.895 -97.755,99.895"
                  style="fill:#ffffff;fill-opacity:1;fill-rule:nonzero;stroke:none"
                  id="path48" />
            </g>
            <g
               id="g50"
               transform="translate(1012.4793,386.0749)"
               style="fill:#ffffff;fill-opacity:1">
               <path
                  d="M 0,0 V 83.559 H 27.05 V -58.384 H 1.875 v 22.496 c -7.499,-14.73 -24.104,-25.175 -43.387,-25.175 -28.656,0 -48.475,16.873 -48.475,53.296 v 91.326 h 27.05 V -2.41 c 0,-24.64 12.319,-34.817 29.995,-34.817 C -14.73,-37.227 0,-22.229 0,0"
                  style="fill:#ffffff;fill-opacity:1;fill-rule:nonzero;stroke:none"
                  id="path52" />
            </g>
            <g
               id="g54"
               transform="translate(1157.174,353.9366)"
               style="fill:#ffffff;fill-opacity:1">
               <path
                  d="m 0,0 v -23.836 c -8.302,-3.749 -15.533,-5.088 -24.104,-5.088 -26.246,0 -44.458,14.194 -44.458,45.529 v 76.06 h -31.334 v 23.033 h 31.334 v 42.047 h 27.05 V 115.698 H 1.339 V 92.665 h -42.851 v -69.9 c 0,-19.551 9.374,-26.514 23.836,-26.514 6.428,0 12.052,1.071 17.676,3.749"
                  style="fill:#ffffff;fill-opacity:1;fill-rule:nonzero;stroke:none"
                  id="path56" />
            </g>
            <g
               id="g58"
               transform="translate(1296.2888,370.0058)"
               style="fill:#ffffff;fill-opacity:1">
               <path
                  d="m 0,0 c 0,-27.853 -21.693,-44.993 -59.456,-44.993 -37.494,0 -59.723,18.479 -62.401,49.01 h 25.978 c 1.071,-17.676 15.266,-28.656 36.959,-28.656 19.015,0 31.602,6.695 31.602,20.086 0,11.784 -7.231,16.873 -24.906,20.354 l -23.033,4.285 c -26.246,5.089 -40.976,18.48 -40.976,39.905 0,24.907 21.693,42.316 54.635,42.316 34.013,0 57.045,-18.212 59.455,-47.404 h -25.978 c -1.607,17.14 -14.194,27.049 -33.209,27.049 -17.141,0 -28.657,-7.231 -28.657,-19.55 0,-11.517 7.231,-16.873 24.372,-20.087 l 24.103,-4.553 C -13.391,32.674 0,20.354 0,0"
                  style="fill:#ffffff;fill-opacity:1;fill-rule:nonzero;stroke:none"
                  id="path60" />
            </g>
            <g
               id="g62"
               transform="translate(1393.0417,349.1169)"
               style="fill:#ffffff;fill-opacity:1">
               <path
                  d="m 0,0 c -22.762,0 -40.171,18.212 -40.171,49.546 0,31.868 17.678,49.816 40.171,49.816 23.301,0 40.176,-17.948 40.176,-49.816 C 40.176,17.673 23.301,0 0,0 m 5.628,123.197 c -20.088,0 -37.496,-10.449 -47.675,-28.66 v 25.98 H -67.219 V -73.117 h 27.048 V 2.68 c 10.179,-17.145 26.515,-26.784 45.799,-26.784 38.031,0 62.669,30.8 62.669,73.65 0,42.85 -24.908,73.651 -62.669,73.651"
                  style="fill:#ffffff;fill-opacity:1;fill-rule:nonzero;stroke:none"
                  id="path64" />
            </g>
            <g
               id="g66"
               transform="translate(1506.437,409.9092)"
               style="fill:#ffffff;fill-opacity:1">
               <path
                  d="M 0,0 C 2.944,26.514 17.678,42.047 39.367,42.047 61.331,42.047 75.527,26.25 76.864,0 Z m 39.906,62.404 c -39.103,0 -67.758,-30.8 -67.758,-72.847 0,-44.726 27.582,-74.454 68.562,-74.454 33.474,0 57.848,19.015 64.809,50.619 H 78.74 c -4.556,-18.481 -18.481,-29.463 -38.569,-29.463 -23.835,0 -38.295,16.874 -40.441,45.799 h 105.789 c 4.825,46.063 -23.296,80.346 -65.613,80.346"
                  style="fill:#ffffff;fill-opacity:1;fill-rule:nonzero;stroke:none"
                  id="path68" />
            </g>
            <g
               id="g70"
               transform="translate(1655.7815,409.9092)"
               style="fill:#ffffff;fill-opacity:1">
               <path
                  d="M 0,0 C 2.944,26.514 17.673,42.047 39.367,42.047 61.326,42.047 75.521,26.25 76.864,0 Z m 39.901,62.404 c -39.098,0 -67.758,-30.8 -67.758,-72.847 0,-44.726 27.587,-74.454 68.561,-74.454 33.48,0 57.849,19.015 64.815,50.619 H 78.735 c -4.551,-18.481 -18.476,-29.463 -38.564,-29.463 -23.835,0 -38.3,16.874 -40.441,45.799 h 105.789 c 4.82,46.063 -23.302,80.346 -65.618,80.346"
                  style="fill:#ffffff;fill-opacity:1;fill-rule:nonzero;stroke:none"
                  id="path72" />
            </g>
            <g
               id="g74"
               transform="translate(1845.5554,349.1169)"
               style="fill:#ffffff;fill-opacity:1">
               <path
                  d="m 0,0 c -23.565,0 -40.171,17.942 -40.171,49.546 0,32.138 16.606,49.816 40.171,49.816 22.498,0 40.176,-17.409 40.176,-49.282 C 40.176,18.746 23.032,0 0,0 M 40.176,170.867 V 96.149 c -9.909,17.403 -26.514,27.048 -45.53,27.048 -38.299,0 -62.938,-30.531 -62.938,-73.651 0,-42.586 24.639,-73.65 62.938,-73.65 20.083,0 37.227,10.178 47.401,28.121 v -25.442 h 25.177 v 192.292 z"
                  style="fill:#ffffff;fill-opacity:1;fill-rule:nonzero;stroke:none"
                  id="path76" />
            </g>
         </g>
      </g>
   </g>
</svg>