<?xml version="1.0" encoding="utf-8"?>
<!-- Generator: Adobe Illustrator 25.4.1, SVG Export Plug-In . SVG Version: 6.00 Build 0)  -->
<svg version="1.1" id="Layer_1" xmlns="http://www.w3.org/2000/svg"
	xmlns:xlink="http://www.w3.org/1999/xlink" x="0px" y="0px"
	viewBox="0 0 2112.8 800" xml:space="preserve">
<style type="text/css">
	.st0{fill:#080808;}
	.st1{fill:url(#SVGID_1_);}
	.st2{fill:#19D8D8;}
	.st3{fill:#FFFFFF;}
</style>
<g>
	<g>
		<g>
			<radialGradient id="SVGID_1_" cx="448.1272" cy="351.8681" r="189.0554" gradientUnits="userSpaceOnUse">
				<stop  offset="0" style="stop-color:#063231"/>
				<stop  offset="1" style="stop-color:#028684"/>
			</radialGradient>
			<path class="st1" d="M504.1,371.7l88.7,88.6c-4.8,15.3-11.4,29.8-19.5,43.4L472.7,403.1v-75.8h-75.8L296.3,226.7
				c13.5-8.1,28-14.7,43.4-19.5l88.6,88.7V200c15.4,2.2,30.3,6.1,44.4,11.5v84.4l53.5-53.5c11.6,9.3,22.1,19.8,31.4,31.4l-53.5,53.5
				h84.3c5.4,14.1,9.4,29,11.5,44.4H504.1z"/>
			<path class="st2" d="M472.7,327.3v261.2c-14.1,5.4-29,9.4-44.4,11.5V403.1L273.8,557.6c-11.6-9.3-22.1-19.8-31.4-31.4
				l154.5-154.5H200c2.2-15.4,6.1-30.3,11.5-44.4H472.7z"/>
		</g>
		<g>
			<path class="st3" d="M797.8,276c-55.7,0-97.8,43.1-97.8,99.9s42,100.4,97.8,100.4s97.8-43.7,97.8-100.4S853.5,276,797.8,276z
				 M797.8,449.8c-40.7,0-67.2-32.7-67.2-73.9s26.5-73.4,67.2-73.4c40.7,0,67.2,32.1,67.2,73.4S838.5,449.8,797.8,449.8z"/>
			<path class="st3" d="M1012.5,413.9v-83.6h27v141.9h-25.2v-22.5c-7.5,14.7-24.1,25.2-43.4,25.2c-28.7,0-48.5-16.9-48.5-53.3v-91.3
				h27v86c0,24.6,12.3,34.8,30,34.8C997.7,451.2,1012.5,436.2,1012.5,413.9z"/>
			<path class="st3" d="M1157.2,446.1v23.8c-8.3,3.7-15.5,5.1-24.1,5.1c-26.2,0-44.5-14.2-44.5-45.5v-76.1h-31.3v-23h31.3v-42h27v42
				h42.9v23h-42.9v69.9c0,19.6,9.4,26.5,23.8,26.5C1145.9,449.8,1151.5,448.7,1157.2,446.1z"/>
			<path class="st3" d="M1296.3,430c0,27.9-21.7,45-59.5,45c-37.5,0-59.7-18.5-62.4-49h26c1.1,17.7,15.3,28.7,37,28.7
				c19,0,31.6-6.7,31.6-20.1c0-11.8-7.2-16.9-24.9-20.4l-23-4.3c-26.2-5.1-41-18.5-41-39.9c0-24.9,21.7-42.3,54.6-42.3
				c34,0,57,18.2,59.5,47.4h-26c-1.6-17.1-14.2-27-33.2-27c-17.1,0-28.7,7.2-28.7,19.6c0,11.5,7.2,16.9,24.4,20.1l24.1,4.6
				C1282.9,397.3,1296.3,409.6,1296.3,430z"/>
			<path class="st3" d="M1398.7,327.7c-20.1,0-37.5,10.4-47.7,28.7v-26h-25.2V524h27v-75.8c10.2,17.1,26.5,26.8,45.8,26.8
				c38,0,62.7-30.8,62.7-73.7S1436.4,327.7,1398.7,327.7z M1393,450.9c-22.8,0-40.2-18.2-40.2-49.5c0-31.9,17.7-49.8,40.2-49.8
				c23.3,0,40.2,17.9,40.2,49.8C1433.2,433.2,1416.3,450.9,1393,450.9z"/>
			<path class="st3" d="M1546.3,327.7c-39.1,0-67.8,30.8-67.8,72.8c0,44.7,27.6,74.5,68.6,74.5c33.5,0,57.8-19,64.8-50.6h-26.8
				c-4.6,18.5-18.5,29.5-38.6,29.5c-23.8,0-38.3-16.9-40.4-45.8H1612C1616.8,362,1588.7,327.7,1546.3,327.7z M1506.4,390.1
				c2.9-26.5,17.7-42,39.4-42c22,0,36.2,15.8,37.5,42H1506.4z"/>
			<path class="st3" d="M1695.7,327.7c-39.1,0-67.8,30.8-67.8,72.8c0,44.7,27.6,74.5,68.6,74.5c33.5,0,57.8-19,64.8-50.6h-26.8
				c-4.6,18.5-18.5,29.5-38.6,29.5c-23.8,0-38.3-16.9-40.4-45.8h105.8C1766.1,362,1738,327.7,1695.7,327.7z M1655.8,390.1
				c2.9-26.5,17.7-42,39.4-42c22,0,36.2,15.8,37.5,42H1655.8z"/>
			<path class="st3" d="M1885.7,280v74.7c-9.9-17.4-26.5-27-45.5-27c-38.3,0-62.9,30.5-62.9,73.7c0,42.6,24.6,73.7,62.9,73.7
				c20.1,0,37.2-10.2,47.4-28.1v25.4h25.2V280H1885.7z M1845.6,450.9c-23.6,0-40.2-17.9-40.2-49.5c0-32.1,16.6-49.8,40.2-49.8
				c22.5,0,40.2,17.4,40.2,49.3C1885.7,432.1,1868.6,450.9,1845.6,450.9z"/>
		</g>
	</g>
</g>
</svg>