<?xml version="1.0" encoding="UTF-8" standalone="no"?>
<!-- Generator: Adobe Illustrator 25.4.1, SVG Export Plug-In . SVG Version: 6.00 Build 0)  -->

<svg
	version="1.1"
	id="Layer_1"
	x="0px"
	y="0px"
	viewBox="0 0 1712.8 400"
	xml:space="preserve"
	xmlns="http://www.w3.org/2000/svg"
	xmlns:svg="http://www.w3.org/2000/svg"><defs
   id="defs203" />
<style
   type="text/css"
   id="style165">
	.st0{fill:#080808;}
	.st1{fill:url(#SVGID_1_);}
	.st2{fill:#19D8D8;}
	.st3{fill:#FFFFFF;}
</style>
<g
   id="g198"
   transform="translate(-200,-200)">
	<g
   id="g196">
		<g
   id="g176">
			<radialGradient
   id="SVGID_1_"
   cx="448.1272"
   cy="351.8681"
   r="189.0554"
   gradientUnits="userSpaceOnUse">
				<stop
   offset="0"
   style="stop-color:#063231"
   id="stop167" />
				<stop
   offset="1"
   style="stop-color:#028684"
   id="stop169" />
			</radialGradient>
			<path
   class="st1"
   d="m 504.1,371.7 88.7,88.6 c -4.8,15.3 -11.4,29.8 -19.5,43.4 L 472.7,403.1 V 327.3 H 396.9 L 296.3,226.7 c 13.5,-8.1 28,-14.7 43.4,-19.5 l 88.6,88.7 V 200 c 15.4,2.2 30.3,6.1 44.4,11.5 v 84.4 l 53.5,-53.5 c 11.6,9.3 22.1,19.8 31.4,31.4 l -53.5,53.5 h 84.3 c 5.4,14.1 9.4,29 11.5,44.4 z"
   id="path172"
   style="fill:url(#SVGID_1_)" />
			<path
   class="st2"
   d="m 472.7,327.3 v 261.2 c -14.1,5.4 -29,9.4 -44.4,11.5 V 403.1 L 273.8,557.6 c -11.6,-9.3 -22.1,-19.8 -31.4,-31.4 L 396.9,371.7 H 200 c 2.2,-15.4 6.1,-30.3 11.5,-44.4 z"
   id="path174" />
		</g>
		<g
   id="g194">
			<path
   class="st3"
   d="m 797.8,276 c -55.7,0 -97.8,43.1 -97.8,99.9 0,56.8 42,100.4 97.8,100.4 55.8,0 97.8,-43.7 97.8,-100.4 0,-56.7 -42.1,-99.9 -97.8,-99.9 z m 0,173.8 c -40.7,0 -67.2,-32.7 -67.2,-73.9 0,-41.2 26.5,-73.4 67.2,-73.4 40.7,0 67.2,32.1 67.2,73.4 0,41.3 -26.5,73.9 -67.2,73.9 z"
   id="path178" />
			<path
   class="st3"
   d="m 1012.5,413.9 v -83.6 h 27 v 141.9 h -25.2 v -22.5 c -7.5,14.7 -24.1,25.2 -43.4,25.2 -28.7,0 -48.5,-16.9 -48.5,-53.3 v -91.3 h 27 v 86 c 0,24.6 12.3,34.8 30,34.8 18.3,0.1 33.1,-14.9 33.1,-37.2 z"
   id="path180" />
			<path
   class="st3"
   d="m 1157.2,446.1 v 23.8 c -8.3,3.7 -15.5,5.1 -24.1,5.1 -26.2,0 -44.5,-14.2 -44.5,-45.5 v -76.1 h -31.3 v -23 h 31.3 v -42 h 27 v 42 h 42.9 v 23 h -42.9 v 69.9 c 0,19.6 9.4,26.5 23.8,26.5 6.5,0 12.1,-1.1 17.8,-3.7 z"
   id="path182" />
			<path
   class="st3"
   d="m 1296.3,430 c 0,27.9 -21.7,45 -59.5,45 -37.5,0 -59.7,-18.5 -62.4,-49 h 26 c 1.1,17.7 15.3,28.7 37,28.7 19,0 31.6,-6.7 31.6,-20.1 0,-11.8 -7.2,-16.9 -24.9,-20.4 l -23,-4.3 c -26.2,-5.1 -41,-18.5 -41,-39.9 0,-24.9 21.7,-42.3 54.6,-42.3 34,0 57,18.2 59.5,47.4 h -26 c -1.6,-17.1 -14.2,-27 -33.2,-27 -17.1,0 -28.7,7.2 -28.7,19.6 0,11.5 7.2,16.9 24.4,20.1 l 24.1,4.6 c 28.1,4.9 41.5,17.2 41.5,37.6 z"
   id="path184" />
			<path
   class="st3"
   d="m 1398.7,327.7 c -20.1,0 -37.5,10.4 -47.7,28.7 v -26 h -25.2 V 524 h 27 v -75.8 c 10.2,17.1 26.5,26.8 45.8,26.8 38,0 62.7,-30.8 62.7,-73.7 0,-42.9 -24.9,-73.6 -62.6,-73.6 z m -5.7,123.2 c -22.8,0 -40.2,-18.2 -40.2,-49.5 0,-31.9 17.7,-49.8 40.2,-49.8 23.3,0 40.2,17.9 40.2,49.8 0,31.8 -16.9,49.5 -40.2,49.5 z"
   id="path186" />
			<path
   class="st3"
   d="m 1546.3,327.7 c -39.1,0 -67.8,30.8 -67.8,72.8 0,44.7 27.6,74.5 68.6,74.5 33.5,0 57.8,-19 64.8,-50.6 h -26.8 c -4.6,18.5 -18.5,29.5 -38.6,29.5 -23.8,0 -38.3,-16.9 -40.4,-45.8 H 1612 c 4.8,-46.1 -23.3,-80.4 -65.7,-80.4 z m -39.9,62.4 c 2.9,-26.5 17.7,-42 39.4,-42 22,0 36.2,15.8 37.5,42 z"
   id="path188" />
			<path
   class="st3"
   d="m 1695.7,327.7 c -39.1,0 -67.8,30.8 -67.8,72.8 0,44.7 27.6,74.5 68.6,74.5 33.5,0 57.8,-19 64.8,-50.6 h -26.8 c -4.6,18.5 -18.5,29.5 -38.6,29.5 -23.8,0 -38.3,-16.9 -40.4,-45.8 h 105.8 c 4.8,-46.1 -23.3,-80.4 -65.6,-80.4 z m -39.9,62.4 c 2.9,-26.5 17.7,-42 39.4,-42 22,0 36.2,15.8 37.5,42 z"
   id="path190" />
			<path
   class="st3"
   d="m 1885.7,280 v 74.7 c -9.9,-17.4 -26.5,-27 -45.5,-27 -38.3,0 -62.9,30.5 -62.9,73.7 0,42.6 24.6,73.7 62.9,73.7 20.1,0 37.2,-10.2 47.4,-28.1 v 25.4 h 25.2 V 280 Z m -40.1,170.9 c -23.6,0 -40.2,-17.9 -40.2,-49.5 0,-32.1 16.6,-49.8 40.2,-49.8 22.5,0 40.2,17.4 40.2,49.3 -0.1,31.2 -17.2,50 -40.2,50 z"
   id="path192" />
		</g>
	</g>
</g>
</svg>